<svg viewBox="0 0 189 48" fill="none" xmlns="http://www.w3.org/2000/svg">
<path fill-rule="evenodd" clip-rule="evenodd" d="M31.938 2.98833C31.938 1.33792 30.6001 0 28.9497 0H19.0508C17.4004 0 16.0625 1.33792 16.0625 2.98833V14.1945C16.0625 15.8449 14.7246 17.1828 13.0742 17.1828H2.98833C1.33792 17.1828 0 18.5208 0 20.1712V29.8832C0 31.5336 1.33792 32.8716 2.98833 32.8716H13.0742C14.7246 32.8716 16.0625 34.2095 16.0625 35.8599V45.0117C16.0625 46.6621 17.4004 48 19.0508 48H28.9497C30.6001 48 31.938 46.6621 31.938 45.0117V35.8599C31.938 34.2095 33.2759 32.8716 34.9263 32.8716H45.0117C46.6621 32.8716 48 31.5336 48 29.8832V20.1712C48 18.5208 46.6621 17.1828 45.0117 17.1828H34.9263C33.2759 17.1828 31.938 15.8449 31.938 14.1945V2.98833Z" fill="url(#paint0_linear_2017_75)"/>
<g clip-path="url(#clip0_2017_75)">
<g filter="url(#filter0_d_2017_75)">
<path d="M27.5441 20.9136V19.2627C27.5441 18.2411 27.1383 17.2612 26.4158 16.5388C25.6934 15.8164 24.7136 15.4106 23.692 15.4106C22.6703 15.4106 21.6905 15.8164 20.9681 16.5388C20.2457 17.2612 19.8398 18.2411 19.8398 19.2627V20.9136" stroke="white" stroke-width="1.8677" stroke-linecap="round" stroke-linejoin="round"/>
<path d="M23.6929 25.8664C23.9968 25.8664 24.2432 25.62 24.2432 25.316C24.2432 25.0121 23.9968 24.7657 23.6929 24.7657C23.389 24.7657 23.1426 25.0121 23.1426 25.316C23.1426 25.62 23.389 25.8664 23.6929 25.8664Z" stroke="#FFDC62" stroke-width="1.8677" stroke-linecap="round" stroke-linejoin="round"/>
<path d="M28.0949 20.9136H19.2901C18.6822 20.9136 18.1895 21.4063 18.1895 22.0142V28.6178C18.1895 29.2257 18.6822 29.7184 19.2901 29.7184H28.0949C28.7028 29.7184 29.1955 29.2257 29.1955 28.6178V22.0142C29.1955 21.4063 28.7028 20.9136 28.0949 20.9136Z" fill="#FFDC62" stroke="#FFDC62" stroke-width="1.8677" stroke-linecap="round" stroke-linejoin="round"/>
</g>
</g>
<path d="M58.496 11.344H64.8L70.688 27.44H70.784L76.608 11.344H82.944V34H78.944V15.792H78.88L72 34H69.184L62.4 15.792H62.336V34H58.496V11.344ZM98.5575 24.784C98.5575 24.2933 98.4828 23.824 98.3335 23.376C98.2055 22.928 97.9922 22.5333 97.6935 22.192C97.3948 21.8507 97.0108 21.584 96.5415 21.392C96.0935 21.1787 95.5602 21.072 94.9415 21.072C93.7895 21.072 92.8082 21.424 91.9975 22.128C91.2082 22.8107 90.7708 23.696 90.6855 24.784H98.5575ZM102.398 26.512C102.398 26.6827 102.398 26.8533 102.398 27.024C102.398 27.1947 102.387 27.3653 102.366 27.536H90.6855C90.7282 28.0907 90.8668 28.6027 91.1015 29.072C91.3575 29.52 91.6882 29.9147 92.0935 30.256C92.4988 30.576 92.9575 30.832 93.4695 31.024C93.9815 31.216 94.5148 31.312 95.0695 31.312C96.0295 31.312 96.8402 31.1413 97.5015 30.8C98.1628 30.4373 98.7068 29.9467 99.1335 29.328L101.694 31.376C100.179 33.424 97.9815 34.448 95.1015 34.448C93.9068 34.448 92.8082 34.2667 91.8055 33.904C90.8028 33.52 89.9282 32.9867 89.1815 32.304C88.4562 31.6213 87.8802 30.7893 87.4535 29.808C87.0482 28.8053 86.8455 27.6747 86.8455 26.416C86.8455 25.1787 87.0482 24.0587 87.4535 23.056C87.8802 22.032 88.4562 21.168 89.1815 20.464C89.9068 19.7387 90.7602 19.184 91.7415 18.8C92.7442 18.3947 93.8215 18.192 94.9735 18.192C96.0402 18.192 97.0215 18.3733 97.9175 18.736C98.8348 19.0773 99.6242 19.6 100.286 20.304C100.947 20.9867 101.459 21.8507 101.822 22.896C102.206 23.92 102.398 25.1253 102.398 26.512ZM121.733 34H118.085V31.696H118.021C117.487 32.592 116.741 33.2747 115.781 33.744C114.842 34.2133 113.829 34.448 112.741 34.448C111.567 34.448 110.511 34.2347 109.573 33.808C108.655 33.36 107.866 32.7733 107.205 32.048C106.565 31.3013 106.063 30.4373 105.701 29.456C105.359 28.4533 105.189 27.3867 105.189 26.256C105.189 25.1253 105.37 24.0693 105.733 23.088C106.095 22.1067 106.607 21.2533 107.269 20.528C107.93 19.8027 108.719 19.2373 109.637 18.832C110.554 18.4053 111.557 18.192 112.645 18.192C113.349 18.192 113.978 18.2773 114.533 18.448C115.087 18.5973 115.567 18.7893 115.973 19.024C116.399 19.2587 116.762 19.5147 117.061 19.792C117.359 20.0693 117.605 20.336 117.797 20.592H117.893V9.808H121.733V34ZM109.093 26.256C109.093 26.8533 109.178 27.4507 109.349 28.048C109.541 28.6453 109.818 29.1787 110.181 29.648C110.543 30.1173 111.002 30.5013 111.557 30.8C112.111 31.0987 112.762 31.248 113.509 31.248C114.213 31.248 114.842 31.1093 115.397 30.832C115.951 30.5333 116.421 30.1493 116.805 29.68C117.21 29.2107 117.509 28.688 117.701 28.112C117.914 27.5147 118.021 26.9173 118.021 26.32C118.021 25.7227 117.914 25.1253 117.701 24.528C117.509 23.9307 117.21 23.3973 116.805 22.928C116.421 22.4587 115.951 22.0747 115.397 21.776C114.842 21.4773 114.213 21.328 113.509 21.328C112.762 21.328 112.111 21.4773 111.557 21.776C111.002 22.0533 110.543 22.4267 110.181 22.896C109.818 23.3653 109.541 23.8987 109.349 24.496C109.178 25.072 109.093 25.6587 109.093 26.256ZM138.142 16.08C137.715 15.5253 137.107 15.0667 136.318 14.704C135.55 14.32 134.771 14.128 133.982 14.128C133.512 14.128 133.043 14.192 132.574 14.32C132.104 14.4267 131.678 14.608 131.294 14.864C130.91 15.0987 130.59 15.4187 130.334 15.824C130.099 16.208 129.982 16.6773 129.982 17.232C129.982 17.744 130.088 18.1813 130.302 18.544C130.515 18.9067 130.803 19.216 131.166 19.472C131.55 19.728 132.008 19.952 132.542 20.144C133.075 20.336 133.662 20.528 134.302 20.72C135.027 20.9547 135.774 21.2213 136.542 21.52C137.331 21.8187 138.046 22.2133 138.686 22.704C139.347 23.1947 139.88 23.8133 140.286 24.56C140.712 25.3067 140.926 26.2347 140.926 27.344C140.926 28.56 140.702 29.6267 140.254 30.544C139.806 31.44 139.208 32.1867 138.462 32.784C137.715 33.3813 136.84 33.8293 135.838 34.128C134.835 34.4267 133.779 34.576 132.67 34.576C131.198 34.576 129.758 34.3093 128.35 33.776C126.942 33.2213 125.79 32.4107 124.894 31.344L127.774 28.656C128.328 29.424 129.064 30.032 129.982 30.48C130.92 30.928 131.838 31.152 132.734 31.152C133.203 31.152 133.683 31.0987 134.174 30.992C134.664 30.864 135.102 30.6613 135.486 30.384C135.891 30.1067 136.211 29.7653 136.446 29.36C136.702 28.9333 136.83 28.4107 136.83 27.792C136.83 27.1947 136.691 26.704 136.414 26.32C136.136 25.9147 135.763 25.5733 135.294 25.296C134.824 24.9973 134.27 24.7413 133.63 24.528C132.99 24.3147 132.318 24.0907 131.614 23.856C130.931 23.6427 130.248 23.3867 129.566 23.088C128.883 22.7893 128.264 22.3947 127.71 21.904C127.176 21.4133 126.739 20.816 126.398 20.112C126.056 19.3867 125.886 18.4907 125.886 17.424C125.886 16.272 126.12 15.28 126.59 14.448C127.08 13.616 127.71 12.9333 128.478 12.4C129.267 11.8453 130.152 11.44 131.134 11.184C132.136 10.9067 133.15 10.768 134.174 10.768C135.326 10.768 136.488 10.9707 137.662 11.376C138.856 11.7813 139.891 12.3893 140.766 13.2L138.142 16.08ZM154.309 32.048H154.213C153.829 32.7307 153.21 33.296 152.357 33.744C151.503 34.1707 150.533 34.384 149.445 34.384C148.826 34.384 148.175 34.2987 147.493 34.128C146.831 33.9787 146.213 33.7227 145.637 33.36C145.082 32.976 144.613 32.4853 144.229 31.888C143.866 31.2693 143.685 30.512 143.685 29.616C143.685 28.464 144.005 27.5467 144.645 26.864C145.306 26.1813 146.149 25.6587 147.173 25.296C148.197 24.9333 149.327 24.6987 150.565 24.592C151.823 24.464 153.05 24.4 154.245 24.4V24.016C154.245 23.056 153.893 22.352 153.189 21.904C152.506 21.4347 151.685 21.2 150.725 21.2C149.914 21.2 149.135 21.3707 148.389 21.712C147.642 22.0533 147.023 22.4693 146.533 22.96L144.549 20.624C145.423 19.8133 146.426 19.2053 147.557 18.8C148.709 18.3947 149.871 18.192 151.045 18.192C152.41 18.192 153.53 18.384 154.405 18.768C155.301 19.152 156.005 19.6533 156.517 20.272C157.029 20.8907 157.381 21.584 157.573 22.352C157.786 23.12 157.893 23.888 157.893 24.656V34H154.309V32.048ZM154.245 26.992H153.381C152.762 26.992 152.111 27.024 151.429 27.088C150.746 27.1307 150.117 27.248 149.541 27.44C148.965 27.6107 148.485 27.8667 148.101 28.208C147.717 28.528 147.525 28.976 147.525 29.552C147.525 29.9147 147.599 30.224 147.749 30.48C147.919 30.7147 148.133 30.9067 148.389 31.056C148.645 31.2053 148.933 31.312 149.253 31.376C149.573 31.44 149.893 31.472 150.213 31.472C151.535 31.472 152.538 31.12 153.221 30.416C153.903 29.712 154.245 28.752 154.245 27.536V26.992ZM162.975 21.712H160.062V18.64H162.975V16.368C162.975 15.4507 163.071 14.576 163.263 13.744C163.476 12.8907 163.817 12.144 164.286 11.504C164.777 10.864 165.417 10.3627 166.207 10C166.996 9.616 167.988 9.424 169.183 9.424C169.609 9.424 169.961 9.44533 170.239 9.488C170.537 9.50933 170.836 9.56267 171.135 9.648L170.879 12.912C170.665 12.848 170.431 12.7947 170.175 12.752C169.94 12.7093 169.684 12.688 169.407 12.688C168.852 12.688 168.404 12.7947 168.062 13.008C167.721 13.2213 167.455 13.4987 167.263 13.84C167.092 14.1813 166.975 14.5547 166.911 14.96C166.847 15.3653 166.815 15.76 166.815 16.144V18.64H170.367V21.712H166.815V34H162.975V21.712ZM183.558 24.784C183.558 24.2933 183.483 23.824 183.334 23.376C183.206 22.928 182.992 22.5333 182.694 22.192C182.395 21.8507 182.011 21.584 181.542 21.392C181.094 21.1787 180.56 21.072 179.942 21.072C178.79 21.072 177.808 21.424 176.998 22.128C176.208 22.8107 175.771 23.696 175.686 24.784H183.558ZM187.398 26.512C187.398 26.6827 187.398 26.8533 187.398 27.024C187.398 27.1947 187.387 27.3653 187.366 27.536H175.686C175.728 28.0907 175.867 28.6027 176.102 29.072C176.358 29.52 176.688 29.9147 177.094 30.256C177.499 30.576 177.958 30.832 178.47 31.024C178.982 31.216 179.515 31.312 180.07 31.312C181.03 31.312 181.84 31.1413 182.502 30.8C183.163 30.4373 183.707 29.9467 184.134 29.328L186.694 31.376C185.179 33.424 182.982 34.448 180.102 34.448C178.907 34.448 177.808 34.2667 176.806 33.904C175.803 33.52 174.928 32.9867 174.182 32.304C173.456 31.6213 172.88 30.7893 172.454 29.808C172.048 28.8053 171.846 27.6747 171.846 26.416C171.846 25.1787 172.048 24.0587 172.454 23.056C172.88 22.032 173.456 21.168 174.182 20.464C174.907 19.7387 175.76 19.184 176.742 18.8C177.744 18.3947 178.822 18.192 179.974 18.192C181.04 18.192 182.022 18.3733 182.918 18.736C183.835 19.0773 184.624 19.6 185.286 20.304C185.947 20.9867 186.459 21.8507 186.822 22.896C187.206 23.92 187.398 25.1253 187.398 26.512Z" fill="url(#paint1_linear_2017_75)"/>
<defs>
<filter id="filter0_d_2017_75" x="15.2348" y="14.4767" width="16.9152" height="20.2176" filterUnits="userSpaceOnUse" color-interpolation-filters="sRGB">
<feFlood flood-opacity="0" result="BackgroundImageFix"/>
<feColorMatrix in="SourceAlpha" type="matrix" values="0 0 0 0 0 0 0 0 0 0 0 0 0 0 0 0 0 0 127 0" result="hardAlpha"/>
<feOffset dy="2.02105"/>
<feGaussianBlur stdDeviation="1.01053"/>
<feComposite in2="hardAlpha" operator="out"/>
<feColorMatrix type="matrix" values="0 0 0 0 0 0 0 0 0 0 0 0 0 0 0 0 0 0 0.25 0"/>
<feBlend mode="normal" in2="BackgroundImageFix" result="effect1_dropShadow_2017_75"/>
<feBlend mode="normal" in="SourceGraphic" in2="effect1_dropShadow_2017_75" result="shape"/>
</filter>
<linearGradient id="paint0_linear_2017_75" x1="14.6526" y1="3.00566e-07" x2="37.3895" y2="48" gradientUnits="userSpaceOnUse">
<stop stop-color="#0063F8"/>
<stop offset="1" stop-color="#844AFF"/>
</linearGradient>
<linearGradient id="paint1_linear_2017_75" x1="56" y1="24" x2="189" y2="24" gradientUnits="userSpaceOnUse">
<stop stop-color="#0762F8"/>
<stop offset="1" stop-color="#7A4DFF"/>
</linearGradient>
<clipPath id="clip0_2017_75">
<rect width="19.2" height="19.2" fill="white" transform="translate(14.1465 14.4)"/>
</clipPath>
</defs>
</svg>
