<svg viewBox="0 0 45 55" fill="none" xmlns="http://www.w3.org/2000/svg">
<g clip-path="url(#clip0_2017_129)">
<path fill-rule="evenodd" clip-rule="evenodd" d="M29.6762 3.19558C29.6762 1.68588 28.4524 0.462036 26.9427 0.462036H17.8878C16.3781 0.462036 15.1543 1.68588 15.1543 3.19558V13.4465C15.1543 14.9561 13.9304 16.18 12.4208 16.18H3.19448C1.68479 16.18 0.460938 17.4038 0.460938 18.9135V27.7975C0.460938 29.3072 1.68479 30.5311 3.19448 30.5311H12.4208C13.9304 30.5311 15.1543 31.7549 15.1543 33.2646V41.636C15.1543 43.1457 16.3781 44.3695 17.8878 44.3695H26.9427C28.4524 44.3695 29.6762 43.1457 29.6762 41.636V33.2646C29.6762 31.7549 30.9001 30.5311 32.4098 30.5311H41.6349C43.1446 30.5311 44.3684 29.3072 44.3684 27.7975V18.9135C44.3684 17.4038 43.1446 16.18 41.6349 16.18H32.4098C30.9001 16.18 29.6762 14.9561 29.6762 13.4465V3.19558Z" fill="url(#paint0_linear_2017_129)"/>
<g clip-path="url(#clip1_2017_129)">
<g filter="url(#filter0_d_2017_129)">
<path d="M25.6587 19.5924V18.0823C25.6587 17.1477 25.2875 16.2515 24.6266 15.5907C23.9658 14.9298 23.0695 14.5586 22.135 14.5586C21.2005 14.5586 20.3042 14.9298 19.6434 15.5907C18.9826 16.2515 18.6113 17.1477 18.6113 18.0823V19.5924" stroke="white" stroke-width="1.70846" stroke-linecap="round" stroke-linejoin="round"/>
<path d="M22.1362 24.1229C22.4142 24.1229 22.6396 23.8975 22.6396 23.6195C22.6396 23.3415 22.4142 23.1161 22.1362 23.1161C21.8582 23.1161 21.6328 23.3415 21.6328 23.6195C21.6328 23.8975 21.8582 24.1229 22.1362 24.1229Z" stroke="#FFDC62" stroke-width="1.70846" stroke-linecap="round" stroke-linejoin="round"/>
<path d="M26.1625 19.5924H18.1083C17.5523 19.5924 17.1016 20.0432 17.1016 20.5992V26.6398C17.1016 27.1958 17.5523 27.6465 18.1083 27.6465H26.1625C26.7185 27.6465 27.1692 27.1958 27.1692 26.6398V20.5992C27.1692 20.0432 26.7185 19.5924 26.1625 19.5924Z" fill="#FFDC62" stroke="#FFDC62" stroke-width="1.70846" stroke-linecap="round" stroke-linejoin="round"/>
</g>
</g>
<path d="M3.49249 48.2117H5.3135L7.01434 52.8613H7.04207L8.72442 48.2117H10.5547V54.7562H9.39921V49.4966H9.38072L7.39333 54.7562H6.57988L4.62022 49.4966H4.60173V54.7562H3.49249V48.2117ZM15.0649 52.094C15.0649 51.9523 15.0433 51.8167 15.0002 51.6873C14.9632 51.5579 14.9016 51.4439 14.8153 51.3453C14.729 51.2467 14.6181 51.1697 14.4825 51.1142C14.3531 51.0526 14.199 51.0218 14.0203 51.0218C13.6876 51.0218 13.4041 51.1235 13.1699 51.3268C12.9419 51.524 12.8156 51.7798 12.7909 52.094H15.0649ZM16.1741 52.5932C16.1741 52.6425 16.1741 52.6918 16.1741 52.7411C16.1741 52.7904 16.171 52.8397 16.1649 52.889H12.7909C12.8032 53.0492 12.8433 53.1971 12.9111 53.3327C12.985 53.4621 13.0806 53.5761 13.1976 53.6747C13.3147 53.7672 13.4472 53.8411 13.5951 53.8966C13.743 53.952 13.8971 53.9798 14.0573 53.9798C14.3346 53.9798 14.5688 53.9305 14.7598 53.8319C14.9509 53.7271 15.108 53.5854 15.2313 53.4066L15.9707 53.9982C15.5332 54.5898 14.8985 54.8856 14.0665 54.8856C13.7214 54.8856 13.4041 54.8333 13.1144 54.7285C12.8248 54.6176 12.5722 54.4635 12.3565 54.2663C12.1469 54.0691 11.9806 53.8288 11.8573 53.5453C11.7402 53.2557 11.6817 52.9291 11.6817 52.5655C11.6817 52.208 11.7402 51.8845 11.8573 51.5949C11.9806 51.2991 12.1469 51.0495 12.3565 50.8461C12.566 50.6366 12.8125 50.4764 13.096 50.3655C13.3856 50.2484 13.6968 50.1898 14.0296 50.1898C14.3377 50.1898 14.6212 50.2422 14.88 50.347C15.145 50.4456 15.373 50.5966 15.564 50.7999C15.7551 50.9971 15.903 51.2467 16.0077 51.5487C16.1186 51.8445 16.1741 52.1926 16.1741 52.5932ZM21.7593 54.7562H20.7055V54.0907H20.687C20.533 54.3495 20.3173 54.5467 20.04 54.6823C19.7688 54.8179 19.4761 54.8856 19.1618 54.8856C18.8229 54.8856 18.5179 54.824 18.2467 54.7008C17.9817 54.5714 17.7537 54.4019 17.5627 54.1924C17.3778 53.9767 17.233 53.7271 17.1282 53.4436C17.0296 53.154 16.9803 52.8459 16.9803 52.5193C16.9803 52.1926 17.0327 51.8876 17.1375 51.6041C17.2422 51.3207 17.3901 51.0742 17.5812 50.8646C17.7722 50.6551 18.0002 50.4918 18.2652 50.3747C18.5302 50.2515 18.8198 50.1898 19.1341 50.1898C19.3375 50.1898 19.5193 50.2145 19.6795 50.2638C19.8397 50.3069 19.9784 50.3624 20.0955 50.4302C20.2187 50.498 20.3235 50.5719 20.4097 50.652C20.496 50.7321 20.5669 50.8092 20.6223 50.8831H20.6501V47.768H21.7593V54.7562ZM18.1081 52.5193C18.1081 52.6918 18.1327 52.8644 18.182 53.0369C18.2375 53.2094 18.3176 53.3635 18.4223 53.4991C18.5271 53.6347 18.6596 53.7456 18.8198 53.8319C18.98 53.9181 19.168 53.9613 19.3837 53.9613C19.587 53.9613 19.7688 53.9212 19.9291 53.8411C20.0893 53.7548 20.2249 53.6439 20.3358 53.5083C20.4529 53.3728 20.5391 53.2218 20.5946 53.0554C20.6562 52.8828 20.687 52.7103 20.687 52.5377C20.687 52.3652 20.6562 52.1926 20.5946 52.0201C20.5391 51.8475 20.4529 51.6935 20.3358 51.5579C20.2249 51.4223 20.0893 51.3114 19.9291 51.2251C19.7688 51.1389 19.587 51.0957 19.3837 51.0957C19.168 51.0957 18.98 51.1389 18.8198 51.2251C18.6596 51.3052 18.5271 51.4131 18.4223 51.5487C18.3176 51.6842 18.2375 51.8383 18.182 52.0109C18.1327 52.1772 18.1081 52.3467 18.1081 52.5193ZM26.4994 49.5798C26.3761 49.4195 26.2005 49.287 25.9725 49.1823C25.7506 49.0714 25.5257 49.0159 25.2977 49.0159C25.1621 49.0159 25.0265 49.0344 24.891 49.0714C24.7554 49.1022 24.6322 49.1546 24.5212 49.2285C24.4103 49.2963 24.3179 49.3887 24.2439 49.5058C24.1761 49.6167 24.1422 49.7523 24.1422 49.9125C24.1422 50.0604 24.173 50.1868 24.2347 50.2915C24.2963 50.3963 24.3795 50.4856 24.4843 50.5596C24.5952 50.6335 24.7277 50.6982 24.8817 50.7537C25.0358 50.8092 25.2053 50.8646 25.3901 50.9201C25.5997 50.9879 25.8153 51.0649 26.0372 51.1512C26.2652 51.2375 26.4716 51.3515 26.6565 51.4932C26.8476 51.6349 27.0016 51.8137 27.1187 52.0293C27.242 52.245 27.3036 52.5131 27.3036 52.8335C27.3036 53.1848 27.2389 53.4929 27.1095 53.7579C26.98 54.0167 26.8075 54.2324 26.5918 54.405C26.3761 54.5775 26.1235 54.7069 25.8338 54.7932C25.5442 54.8795 25.2392 54.9226 24.9187 54.9226C24.4935 54.9226 24.0775 54.8456 23.6708 54.6915C23.2641 54.5313 22.9313 54.2971 22.6725 53.989L23.5044 53.2125C23.6646 53.4344 23.8773 53.61 24.1422 53.7394C24.4134 53.8688 24.6784 53.9335 24.9372 53.9335C25.0728 53.9335 25.2114 53.9181 25.3532 53.8873C25.4949 53.8503 25.6212 53.7918 25.7322 53.7117C25.8492 53.6316 25.9417 53.533 26.0095 53.4159C26.0834 53.2926 26.1204 53.1417 26.1204 52.963C26.1204 52.7904 26.0803 52.6487 26.0002 52.5377C25.9201 52.4207 25.8123 52.3221 25.6767 52.2419C25.5411 52.1557 25.3809 52.0817 25.196 52.0201C25.0111 51.9585 24.817 51.8938 24.6137 51.826C24.4165 51.7644 24.2193 51.6904 24.0221 51.6041C23.8249 51.5179 23.6462 51.4038 23.4859 51.2621C23.3319 51.1204 23.2055 50.9478 23.1069 50.7445C23.0083 50.5349 22.959 50.2761 22.959 49.968C22.959 49.6352 23.0268 49.3487 23.1624 49.1083C23.3041 48.868 23.4859 48.6708 23.7078 48.5167C23.9358 48.3565 24.1915 48.2394 24.475 48.1655C24.7646 48.0854 25.0574 48.0453 25.3532 48.0453C25.6859 48.0453 26.0218 48.1039 26.3607 48.2209C26.7058 48.338 27.0047 48.5137 27.2574 48.7478L26.4994 49.5798ZM31.1695 54.1924H31.1417C31.0308 54.3896 30.8521 54.5529 30.6056 54.6823C30.3591 54.8055 30.0787 54.8671 29.7644 54.8671C29.5857 54.8671 29.3978 54.8425 29.2006 54.7932C29.0095 54.7501 28.8308 54.6761 28.6644 54.5714C28.5042 54.4604 28.3686 54.3187 28.2577 54.1461C28.1529 53.9674 28.1006 53.7487 28.1006 53.4898C28.1006 53.1571 28.193 52.8921 28.3779 52.6949C28.5689 52.4977 28.8123 52.3467 29.1081 52.2419C29.4039 52.1372 29.7305 52.0694 30.088 52.0386C30.4515 52.0016 30.8059 51.9831 31.151 51.9831V51.8722C31.151 51.5949 31.0493 51.3915 30.8459 51.2621C30.6487 51.1265 30.4115 51.0588 30.1342 51.0588C29.9 51.0588 29.6751 51.1081 29.4594 51.2066C29.2437 51.3052 29.065 51.4254 28.9232 51.5672L28.3501 50.8924C28.6028 50.6582 28.8924 50.4826 29.219 50.3655C29.5518 50.2484 29.8877 50.1898 30.2266 50.1898C30.621 50.1898 30.9445 50.2453 31.1972 50.3562C31.456 50.4672 31.6594 50.612 31.8073 50.7907C31.9552 50.9694 32.0569 51.1697 32.1123 51.3915C32.1739 51.6134 32.2048 51.8352 32.2048 52.0571V54.7562H31.1695V54.1924ZM31.151 52.7319H30.9014C30.7227 52.7319 30.5347 52.7411 30.3375 52.7596C30.1403 52.7719 29.9585 52.8058 29.7922 52.8613C29.6258 52.9106 29.4871 52.9845 29.3762 53.0831C29.2653 53.1756 29.2098 53.305 29.2098 53.4714C29.2098 53.5761 29.2314 53.6655 29.2745 53.7394C29.3238 53.8072 29.3854 53.8627 29.4594 53.9058C29.5333 53.9489 29.6165 53.9798 29.709 53.9982C29.8014 54.0167 29.8938 54.026 29.9863 54.026C30.3683 54.026 30.658 53.9243 30.8552 53.7209C31.0524 53.5176 31.151 53.2403 31.151 52.889V52.7319ZM33.6727 51.2066H32.8315V50.3193H33.6727V49.663C33.6727 49.398 33.7004 49.1453 33.7559 48.905C33.8175 48.6585 33.9161 48.4428 34.0517 48.2579C34.1934 48.073 34.3783 47.9282 34.6063 47.8235C34.8343 47.7125 35.1209 47.6571 35.466 47.6571C35.5892 47.6571 35.6909 47.6632 35.771 47.6756C35.8573 47.6817 35.9436 47.6971 36.0298 47.7218L35.9559 48.6646C35.8943 48.6461 35.8265 48.6307 35.7525 48.6184C35.6847 48.6061 35.6108 48.5999 35.5307 48.5999C35.3705 48.5999 35.241 48.6307 35.1424 48.6924C35.0438 48.754 34.9668 48.8341 34.9113 48.9327C34.862 49.0313 34.8282 49.1391 34.8097 49.2562C34.7912 49.3733 34.7819 49.4873 34.7819 49.5982V50.3193H35.808V51.2066H34.7819V54.7562H33.6727V51.2066ZM39.6184 52.094C39.6184 51.9523 39.5968 51.8167 39.5537 51.6873C39.5167 51.5579 39.4551 51.4439 39.3688 51.3453C39.2826 51.2467 39.1716 51.1697 39.0361 51.1142C38.9066 51.0526 38.7526 51.0218 38.5739 51.0218C38.2411 51.0218 37.9576 51.1235 37.7235 51.3268C37.4954 51.524 37.3691 51.7798 37.3445 52.094H39.6184ZM40.7276 52.5932C40.7276 52.6425 40.7276 52.6918 40.7276 52.7411C40.7276 52.7904 40.7246 52.8397 40.7184 52.889H37.3445C37.3568 53.0492 37.3968 53.1971 37.4646 53.3327C37.5386 53.4621 37.6341 53.5761 37.7512 53.6747C37.8683 53.7672 38.0008 53.8411 38.1487 53.8966C38.2966 53.952 38.4506 53.9798 38.6108 53.9798C38.8882 53.9798 39.1223 53.9305 39.3134 53.8319C39.5044 53.7271 39.6615 53.5854 39.7848 53.4066L40.5243 53.9982C40.0868 54.5898 39.452 54.8856 38.6201 54.8856C38.275 54.8856 37.9576 54.8333 37.668 54.7285C37.3784 54.6176 37.1257 54.4635 36.91 54.2663C36.7005 54.0691 36.5341 53.8288 36.4108 53.5453C36.2938 53.2557 36.2352 52.9291 36.2352 52.5655C36.2352 52.208 36.2938 51.8845 36.4108 51.5949C36.5341 51.2991 36.7005 51.0495 36.91 50.8461C37.1195 50.6366 37.366 50.4764 37.6495 50.3655C37.9391 50.2484 38.2503 50.1898 38.5831 50.1898C38.8912 50.1898 39.1747 50.2422 39.4335 50.347C39.6985 50.4456 39.9265 50.5966 40.1176 50.7999C40.3086 50.9971 40.4565 51.2467 40.5613 51.5487C40.6722 51.8445 40.7276 52.1926 40.7276 52.5932Z" fill="url(#paint1_linear_2017_129)"/>
</g>
<defs>
<filter id="filter0_d_2017_129" x="14.3993" y="13.7043" width="15.4729" height="18.4939" filterUnits="userSpaceOnUse" color-interpolation-filters="sRGB">
<feFlood flood-opacity="0" result="BackgroundImageFix"/>
<feColorMatrix in="SourceAlpha" type="matrix" values="0 0 0 0 0 0 0 0 0 0 0 0 0 0 0 0 0 0 127 0" result="hardAlpha"/>
<feOffset dy="1.84874"/>
<feGaussianBlur stdDeviation="0.924369"/>
<feComposite in2="hardAlpha" operator="out"/>
<feColorMatrix type="matrix" values="0 0 0 0 0 0 0 0 0 0 0 0 0 0 0 0 0 0 0.25 0"/>
<feBlend mode="normal" in2="BackgroundImageFix" result="effect1_dropShadow_2017_129"/>
<feBlend mode="normal" in="SourceGraphic" in2="effect1_dropShadow_2017_129" result="shape"/>
</filter>
<linearGradient id="paint0_linear_2017_129" x1="13.8643" y1="0.462036" x2="34.6626" y2="44.3695" gradientUnits="userSpaceOnUse">
<stop stop-color="#0063F8"/>
<stop offset="1" stop-color="#844AFF"/>
</linearGradient>
<linearGradient id="paint1_linear_2017_129" x1="2.77148" y1="52.2562" x2="41.7715" y2="52.2562" gradientUnits="userSpaceOnUse">
<stop stop-color="#0762F8"/>
<stop offset="1" stop-color="#7A4DFF"/>
</linearGradient>
<clipPath id="clip0_2017_129">
<rect width="44.8319" height="54.9999" fill="white"/>
</clipPath>
<clipPath id="clip1_2017_129">
<rect width="17.563" height="17.563" fill="white" transform="translate(13.4043 13.6343)"/>
</clipPath>
</defs>
</svg>
